<svg width="621" height="118" viewBox="0 0 621 118" fill="none" xmlns="http://www.w3.org/2000/svg">
<path d="M7.708 115.5V0.699992H38.54L66.584 71.056L93.808 0.699992H124.64V115.5H98.728V46.456L76.588 102.052H55.76L33.62 46.292V115.5H7.708ZM153.117 115.5V0.699992H228.557V23.004H179.029V43.832H220.849V66.136H179.029V93.196H228.557V115.5H153.117ZM254.964 115.5V0.699992H285.796L313.84 71.056L341.064 0.699992H371.896V115.5H345.984V46.456L323.844 102.052H303.016L280.876 46.292V115.5H254.964ZM390.27 115.5L431.926 0.699992H461.61L503.43 115.5H476.042L468.006 91.72H425.366L417.166 115.5H390.27ZM432.582 71.056H460.954L446.522 29.236L432.582 71.056ZM565.604 117.468C554.889 117.468 546.088 115.336 539.2 111.072C532.312 106.808 527.228 101.123 523.948 94.016C520.668 86.9093 519.028 79.0373 519.028 70.4V0.699992H544.776V70.564C544.776 77.9987 546.58 83.7387 550.188 87.784C553.796 91.72 559.099 93.688 566.096 93.688C572.984 93.688 578.287 91.72 582.004 87.784C585.831 83.7387 587.744 77.9987 587.744 70.564V0.699992H613.492V70.4C613.492 79.3653 612.016 86.8547 609.064 92.868C606.112 98.8813 602.231 103.692 597.42 107.3C592.719 110.908 587.525 113.532 581.84 115.172C576.264 116.703 570.852 117.468 565.604 117.468Z" fill="#481074"/>
</svg>
