<svg width="1002" height="147" viewBox="0 0 1002 147" fill="none" xmlns="http://www.w3.org/2000/svg">
<path d="M7.708 131V16.2H38.54L66.584 86.556L93.808 16.2H124.64V131H98.728V61.956L76.588 117.552H55.76L33.62 61.792V131H7.708ZM153.117 131V16.2H228.557V38.504H179.029V59.332H220.849V81.636H179.029V108.696H228.557V131H153.117ZM254.964 131V16.2H285.796L313.84 86.556L341.064 16.2H371.896V131H345.984V61.956L323.844 117.552H303.016L280.876 61.792V131H254.964ZM390.27 131L431.926 16.2H461.61L503.43 131H476.042L468.006 107.22H425.366L417.166 131H390.27ZM432.582 86.556H460.954L446.522 44.736L432.582 86.556ZM565.604 132.968C554.889 132.968 546.088 130.836 539.2 126.572C532.312 122.308 527.228 116.623 523.948 109.516C520.668 102.409 519.028 94.5373 519.028 85.9V16.2H544.776V86.064C544.776 93.4987 546.58 99.2387 550.188 103.284C553.796 107.22 559.099 109.188 566.096 109.188C572.984 109.188 578.287 107.22 582.004 103.284C585.831 99.2387 587.744 93.4987 587.744 86.064V16.2H613.492V85.9C613.492 94.8653 612.016 102.355 609.064 108.368C606.112 114.381 602.231 119.192 597.42 122.8C592.719 126.408 587.525 129.032 581.84 130.672C576.264 132.203 570.852 132.968 565.604 132.968Z" fill="#2B176C"/>
<rect x="661" width="341" height="147" rx="73.5" fill="#2B176C"/>
<path d="M750.92 108.344C747.144 108.344 743.592 107.416 740.264 105.56C737 103.64 734.376 100.856 732.392 97.208C730.408 93.56 729.416 89.144 729.416 83.96V82.424C729.416 77.24 730.408 72.824 732.392 69.176C734.376 65.528 737 62.776 740.264 60.92C743.528 59 747.08 58.04 750.92 58.04C753.8 58.04 756.2 58.392 758.12 59.096C760.104 59.736 761.704 60.568 762.92 61.592C764.136 62.616 765.064 63.704 765.704 64.856H767.432V39.8H779.528V107H767.624V101.24H765.896C764.808 103.032 763.112 104.664 760.808 106.136C758.568 107.608 755.272 108.344 750.92 108.344ZM754.568 97.784C758.28 97.784 761.384 96.6 763.88 94.232C766.376 91.8 767.624 88.28 767.624 83.672V82.712C767.624 78.104 766.376 74.616 763.88 72.248C761.448 69.816 758.344 68.6 754.568 68.6C750.856 68.6 747.752 69.816 745.256 72.248C742.76 74.616 741.512 78.104 741.512 82.712V83.672C741.512 88.28 742.76 91.8 745.256 94.232C747.752 96.6 750.856 97.784 754.568 97.784ZM807.723 108.344C804.331 108.344 801.291 107.768 798.603 106.616C795.915 105.4 793.771 103.672 792.171 101.432C790.635 99.128 789.867 96.344 789.867 93.08C789.867 89.816 790.635 87.096 792.171 84.92C793.771 82.68 795.947 81.016 798.699 79.928C801.515 78.776 804.715 78.2 808.299 78.2H821.355V75.512C821.355 73.272 820.651 71.448 819.243 70.04C817.835 68.568 815.595 67.832 812.523 67.832C809.515 67.832 807.275 68.536 805.803 69.944C804.331 71.288 803.371 73.048 802.923 75.224L791.787 71.48C792.555 69.048 793.771 66.84 795.435 64.856C797.163 62.808 799.435 61.176 802.251 59.96C805.131 58.68 808.619 58.04 812.715 58.04C818.987 58.04 823.947 59.608 827.595 62.744C831.243 65.88 833.067 70.424 833.067 76.376V94.136C833.067 96.056 833.963 97.016 835.755 97.016H839.595V107H831.531C829.163 107 827.211 106.424 825.675 105.272C824.139 104.12 823.371 102.584 823.371 100.664V100.568H821.547C821.291 101.336 820.715 102.36 819.819 103.64C818.923 104.856 817.515 105.944 815.595 106.904C813.675 107.864 811.051 108.344 807.723 108.344ZM809.835 98.552C813.227 98.552 815.979 97.624 818.091 95.768C820.267 93.848 821.355 91.32 821.355 88.184V87.224H809.163C806.923 87.224 805.163 87.704 803.883 88.664C802.603 89.624 801.963 90.968 801.963 92.696C801.963 94.424 802.635 95.832 803.979 96.92C805.323 98.008 807.275 98.552 809.835 98.552ZM863.21 107C860.074 107 857.514 106.04 855.53 104.12C853.61 102.136 852.65 99.512 852.65 96.248V69.368H840.746V59.384H852.65V44.6H864.746V59.384H877.802V69.368H864.746V94.136C864.746 96.056 865.642 97.016 867.434 97.016H876.65V107H863.21ZM903.535 108.344C900.143 108.344 897.103 107.768 894.415 106.616C891.727 105.4 889.583 103.672 887.983 101.432C886.447 99.128 885.679 96.344 885.679 93.08C885.679 89.816 886.447 87.096 887.983 84.92C889.583 82.68 891.759 81.016 894.511 79.928C897.327 78.776 900.527 78.2 904.111 78.2H917.167V75.512C917.167 73.272 916.463 71.448 915.055 70.04C913.647 68.568 911.407 67.832 908.335 67.832C905.327 67.832 903.087 68.536 901.615 69.944C900.143 71.288 899.183 73.048 898.735 75.224L887.599 71.48C888.367 69.048 889.583 66.84 891.247 64.856C892.975 62.808 895.247 61.176 898.063 59.96C900.943 58.68 904.431 58.04 908.527 58.04C914.799 58.04 919.759 59.608 923.407 62.744C927.055 65.88 928.879 70.424 928.879 76.376V94.136C928.879 96.056 929.775 97.016 931.567 97.016H935.407V107H927.343C924.975 107 923.023 106.424 921.487 105.272C919.951 104.12 919.183 102.584 919.183 100.664V100.568H917.359C917.103 101.336 916.527 102.36 915.631 103.64C914.735 104.856 913.327 105.944 911.407 106.904C909.487 107.864 906.863 108.344 903.535 108.344ZM905.647 98.552C909.039 98.552 911.791 97.624 913.903 95.768C916.079 93.848 917.167 91.32 917.167 88.184V87.224H904.975C902.735 87.224 900.975 87.704 899.695 88.664C898.415 89.624 897.775 90.968 897.775 92.696C897.775 94.424 898.447 95.832 899.791 96.92C901.135 98.008 903.087 98.552 905.647 98.552Z" fill="white"/>
</svg>
